<svg width="253" height="40" viewBox="0 0 253 40" fill="none" xmlns="http://www.w3.org/2000/svg">
<path d="M223.492 36.112V34.192H225.044V36.112H223.492Z" fill="#1A202C"/>
<path d="M217.344 36.304C216.512 36.304 215.771 36.1067 215.12 35.712C214.469 35.3174 213.957 34.7787 213.584 34.096C213.211 33.4027 213.024 32.6294 213.024 31.776C213.024 30.912 213.205 30.144 213.568 29.472C213.941 28.8 214.443 28.272 215.072 27.888C215.712 27.4934 216.427 27.296 217.216 27.296C217.856 27.296 218.421 27.4134 218.912 27.648C219.413 27.872 219.835 28.1814 220.176 28.576C220.528 28.96 220.795 29.4027 220.976 29.904C221.168 30.3947 221.264 30.9067 221.264 31.44C221.264 31.5574 221.253 31.6907 221.232 31.84C221.221 31.9787 221.205 32.112 221.184 32.24H214.112V30.96H220.32L219.616 31.536C219.712 30.9814 219.659 30.4854 219.456 30.048C219.253 29.6107 218.955 29.264 218.56 29.008C218.165 28.752 217.717 28.624 217.216 28.624C216.715 28.624 216.256 28.752 215.84 29.008C215.424 29.264 215.099 29.632 214.864 30.112C214.64 30.5814 214.549 31.1414 214.592 31.792C214.549 32.4214 214.645 32.976 214.88 33.456C215.125 33.9254 215.467 34.2934 215.904 34.56C216.352 34.816 216.837 34.944 217.36 34.944C217.936 34.944 218.421 34.8107 218.816 34.544C219.211 34.2774 219.531 33.936 219.776 33.52L221.024 34.16C220.853 34.5547 220.587 34.9174 220.224 35.248C219.872 35.568 219.451 35.824 218.96 36.016C218.48 36.208 217.941 36.304 217.344 36.304Z" fill="#1A202C"/>
<path d="M208.055 36.304C207.213 36.304 206.461 36.1067 205.799 35.712C205.149 35.3174 204.637 34.7787 204.263 34.096C203.89 33.4134 203.703 32.6454 203.703 31.792C203.703 30.928 203.89 30.16 204.263 29.488C204.637 28.816 205.149 28.2827 205.799 27.888C206.461 27.4934 207.213 27.296 208.055 27.296C208.621 27.296 209.149 27.3974 209.639 27.6C210.13 27.8027 210.562 28.0747 210.935 28.416C211.309 28.7574 211.581 29.1574 211.751 29.616L210.423 30.256C210.221 29.808 209.911 29.4454 209.495 29.168C209.079 28.88 208.599 28.736 208.055 28.736C207.533 28.736 207.058 28.8694 206.631 29.136C206.215 29.4027 205.885 29.7654 205.639 30.224C205.394 30.6827 205.271 31.2107 205.271 31.808C205.271 32.384 205.394 32.9067 205.639 33.376C205.885 33.8347 206.215 34.1974 206.631 34.464C207.058 34.7307 207.533 34.864 208.055 34.864C208.599 34.864 209.079 34.7254 209.495 34.448C209.911 34.16 210.221 33.7814 210.423 33.312L211.751 33.984C211.581 34.432 211.309 34.832 210.935 35.184C210.562 35.5254 210.13 35.7974 209.639 36C209.149 36.2027 208.621 36.304 208.055 36.304Z" fill="#1A202C"/>
<path d="M195.094 36.112V27.488H196.55V29.168L196.31 29.024C196.523 28.48 196.865 28.0587 197.334 27.76C197.814 27.4507 198.374 27.296 199.014 27.296C199.633 27.296 200.182 27.4347 200.662 27.712C201.153 27.9894 201.537 28.3734 201.814 28.864C202.102 29.3547 202.246 29.9094 202.246 30.528V36.112H200.742V31.008C200.742 30.528 200.657 30.1227 200.486 29.792C200.315 29.4614 200.07 29.2054 199.75 29.024C199.441 28.832 199.083 28.736 198.678 28.736C198.273 28.736 197.91 28.832 197.59 29.024C197.281 29.2054 197.035 29.4667 196.854 29.808C196.673 30.1387 196.582 30.5387 196.582 31.008V36.112H195.094Z" fill="#1A202C"/>
<path d="M188.739 36.304C188.174 36.304 187.672 36.2027 187.235 36C186.808 35.7867 186.472 35.4987 186.227 35.136C185.982 34.7627 185.859 34.336 185.859 33.856C185.859 33.3974 185.955 32.9867 186.147 32.624C186.35 32.2507 186.659 31.936 187.075 31.68C187.502 31.424 188.035 31.2427 188.675 31.136L191.875 30.608V31.856L189.011 32.336C188.456 32.432 188.051 32.608 187.795 32.864C187.55 33.12 187.427 33.4347 187.427 33.808C187.427 34.16 187.566 34.4534 187.843 34.688C188.131 34.9227 188.488 35.04 188.915 35.04C189.459 35.04 189.928 34.928 190.323 34.704C190.728 34.4694 191.043 34.1547 191.267 33.76C191.502 33.3654 191.619 32.928 191.619 32.448V30.256C191.619 29.7867 191.443 29.408 191.091 29.12C190.75 28.8214 190.296 28.672 189.731 28.672C189.24 28.672 188.803 28.8 188.419 29.056C188.046 29.3014 187.768 29.632 187.587 30.048L186.291 29.376C186.451 28.9814 186.707 28.6294 187.059 28.32C187.411 28 187.822 27.7494 188.291 27.568C188.76 27.3867 189.251 27.296 189.763 27.296C190.424 27.296 191.006 27.424 191.507 27.68C192.008 27.9254 192.398 28.272 192.675 28.72C192.963 29.1574 193.107 29.6694 193.107 30.256V36.112H191.651V34.48L191.923 34.576C191.742 34.9174 191.496 35.216 191.187 35.472C190.878 35.728 190.515 35.9307 190.099 36.08C189.683 36.2294 189.23 36.304 188.739 36.304Z" fill="#1A202C"/>
<path d="M182.734 36.112V27.488H184.222V36.112H182.734ZM182.734 26.112V24.192H184.222V26.112H182.734Z" fill="#1A202C"/>
<path d="M179.257 36.112V24H180.745V36.112H179.257Z" fill="#1A202C"/>
<path d="M175.78 36.112V24H177.268V36.112H175.78Z" fill="#1A202C"/>
<path d="M172.303 36.112V27.488H173.791V36.112H172.303ZM172.303 26.112V24.192H173.791V26.112H172.303Z" fill="#1A202C"/>
<path d="M167.03 36.112V27.488H168.486V29.072L168.326 28.848C168.528 28.3573 168.838 27.9946 169.254 27.76C169.67 27.5146 170.176 27.392 170.774 27.392H171.302V28.8H170.55C169.942 28.8 169.451 28.992 169.078 29.376C168.704 29.7493 168.518 30.2826 168.518 30.976V36.112H167.03Z" fill="#1A202C"/>
<path d="M161.111 36.304C160.417 36.304 159.783 36.1493 159.207 35.84C158.641 35.5307 158.204 35.0933 157.895 34.528L158.103 34.272V36.112H156.647V24H158.135V29.344L157.911 28.976C158.231 28.464 158.668 28.0587 159.223 27.76C159.777 27.4507 160.412 27.296 161.127 27.296C161.937 27.296 162.663 27.4933 163.303 27.888C163.953 28.2827 164.465 28.8213 164.839 29.504C165.212 30.176 165.399 30.944 165.399 31.808C165.399 32.6507 165.212 33.4133 164.839 34.096C164.465 34.7787 163.953 35.3173 163.303 35.712C162.663 36.1067 161.932 36.304 161.111 36.304ZM160.999 34.864C161.543 34.864 162.028 34.7307 162.455 34.464C162.881 34.1973 163.212 33.8347 163.447 33.376C163.692 32.9067 163.815 32.384 163.815 31.808C163.815 31.2107 163.692 30.688 163.447 30.24C163.212 29.7813 162.881 29.4187 162.455 29.152C162.028 28.8747 161.543 28.736 160.999 28.736C160.455 28.736 159.964 28.8693 159.527 29.136C159.1 29.4027 158.759 29.7707 158.503 30.24C158.257 30.6987 158.135 31.2213 158.135 31.808C158.135 32.384 158.257 32.9067 158.503 33.376C158.759 33.8347 159.1 34.1973 159.527 34.464C159.964 34.7307 160.455 34.864 160.999 34.864Z" fill="#1A202C"/>
<path d="M148.927 36.112V27.488H150.383V29.072L150.223 28.848C150.426 28.3573 150.735 27.9946 151.151 27.76C151.567 27.5146 152.074 27.392 152.671 27.392H153.199V28.8H152.447C151.839 28.8 151.349 28.992 150.975 29.376C150.602 29.7493 150.415 30.2826 150.415 30.976V36.112H148.927Z" fill="#1A202C"/>
<path d="M143.022 36.304C142.403 36.304 141.843 36.16 141.342 35.872C140.851 35.584 140.467 35.184 140.19 34.672C139.923 34.1493 139.79 33.552 139.79 32.88V27.488H141.278V32.72C141.278 33.1466 141.363 33.52 141.534 33.84C141.715 34.16 141.961 34.4106 142.27 34.592C142.59 34.7733 142.953 34.864 143.358 34.864C143.763 34.864 144.121 34.7733 144.43 34.592C144.75 34.4106 144.995 34.1493 145.166 33.808C145.347 33.4666 145.438 33.0613 145.438 32.592V27.488H146.942V36.112H145.486V34.432L145.726 34.576C145.523 35.12 145.177 35.5466 144.686 35.856C144.206 36.1546 143.651 36.304 143.022 36.304Z" fill="#1A202C"/>
<path d="M133.913 36.304C133.081 36.304 132.329 36.112 131.657 35.728C130.985 35.3334 130.452 34.7947 130.057 34.112C129.663 33.4294 129.465 32.656 129.465 31.792C129.465 30.928 129.657 30.16 130.041 29.488C130.436 28.816 130.969 28.2827 131.641 27.888C132.313 27.4934 133.071 27.296 133.913 27.296C134.745 27.296 135.497 27.4934 136.169 27.888C136.841 28.272 137.369 28.8 137.753 29.472C138.148 30.144 138.345 30.9174 138.345 31.792C138.345 32.6667 138.143 33.4454 137.737 34.128C137.332 34.8 136.793 35.3334 136.121 35.728C135.46 36.112 134.724 36.304 133.913 36.304ZM133.913 34.864C134.447 34.864 134.927 34.7307 135.353 34.464C135.791 34.1974 136.132 33.8294 136.377 33.36C136.633 32.8907 136.761 32.368 136.761 31.792C136.761 31.2054 136.633 30.688 136.377 30.24C136.132 29.7814 135.791 29.4187 135.353 29.152C134.927 28.8747 134.447 28.736 133.913 28.736C133.369 28.736 132.879 28.8747 132.441 29.152C132.015 29.4187 131.673 29.7814 131.417 30.24C131.161 30.688 131.033 31.2054 131.033 31.792C131.033 32.368 131.161 32.8907 131.417 33.36C131.673 33.8294 132.015 34.1974 132.441 34.464C132.879 34.7307 133.369 34.864 133.913 34.864Z" fill="#1A202C"/>
<path d="M121.914 39.632C121.722 39.632 121.53 39.616 121.338 39.584C121.146 39.552 120.964 39.4986 120.794 39.424V38.096C120.911 38.1173 121.055 38.1386 121.226 38.16C121.407 38.192 121.583 38.208 121.754 38.208C122.255 38.208 122.634 38.096 122.89 37.872C123.156 37.6586 123.407 37.2853 123.642 36.752L124.186 35.456L124.154 36.752L120.474 27.488H122.09L124.954 34.848H124.474L127.322 27.488H128.97L125.082 37.136C124.9 37.5946 124.666 38.0106 124.378 38.384C124.1 38.768 123.759 39.072 123.354 39.296C122.948 39.52 122.468 39.632 121.914 39.632Z" fill="#1A202C"/>
<path d="M112.889 39.632C112.281 39.632 111.716 39.536 111.193 39.344C110.681 39.152 110.239 38.8854 109.865 38.544C109.503 38.2134 109.225 37.824 109.033 37.376L110.425 36.736C110.575 37.1414 110.857 37.4827 111.273 37.76C111.7 38.048 112.233 38.192 112.873 38.192C113.364 38.192 113.807 38.096 114.201 37.904C114.607 37.7227 114.927 37.4454 115.161 37.072C115.396 36.7094 115.513 36.2667 115.513 35.744V33.808L115.785 34.096C115.487 34.6827 115.055 35.1307 114.489 35.44C113.935 35.7494 113.321 35.904 112.649 35.904C111.839 35.904 111.113 35.7174 110.473 35.344C109.833 34.96 109.332 34.4427 108.969 33.792C108.607 33.1307 108.425 32.4 108.425 31.6C108.425 30.7894 108.607 30.0587 108.969 29.408C109.332 28.7574 109.828 28.2454 110.457 27.872C111.097 27.488 111.823 27.296 112.633 27.296C113.305 27.296 113.913 27.4507 114.457 27.76C115.012 28.0587 115.455 28.4747 115.785 29.008L115.561 29.408V27.488H117.017V35.744C117.017 36.4907 116.841 37.1574 116.489 37.744C116.137 38.3307 115.647 38.7894 115.017 39.12C114.399 39.4614 113.689 39.632 112.889 39.632ZM112.777 34.464C113.289 34.464 113.748 34.336 114.153 34.08C114.569 33.824 114.9 33.4827 115.145 33.056C115.391 32.6187 115.513 32.1334 115.513 31.6C115.513 31.0774 115.391 30.5974 115.145 30.16C114.9 29.7227 114.569 29.376 114.153 29.12C113.748 28.864 113.289 28.736 112.777 28.736C112.255 28.736 111.78 28.864 111.353 29.12C110.927 29.376 110.591 29.7227 110.345 30.16C110.111 30.5867 109.993 31.0667 109.993 31.6C109.993 32.1334 110.111 32.6187 110.345 33.056C110.591 33.4827 110.921 33.824 111.337 34.08C111.764 34.336 112.244 34.464 112.777 34.464Z" fill="#1A202C"/>
<path d="M99.816 36.112V27.488H101.272V29.168L101.032 29.024C101.245 28.48 101.587 28.0587 102.056 27.76C102.536 27.4507 103.096 27.296 103.736 27.296C104.355 27.296 104.904 27.4347 105.384 27.712C105.875 27.9894 106.259 28.3734 106.536 28.864C106.824 29.3547 106.968 29.9094 106.968 30.528V36.112H105.464V31.008C105.464 30.528 105.379 30.1227 105.208 29.792C105.037 29.4614 104.792 29.2054 104.472 29.024C104.163 28.832 103.805 28.736 103.4 28.736C102.995 28.736 102.632 28.832 102.312 29.024C102.003 29.2054 101.757 29.4667 101.576 29.808C101.395 30.1387 101.304 30.5387 101.304 31.008V36.112H99.816Z" fill="#1A202C"/>
<path d="M96.3391 36.112V27.488H97.8271V36.112H96.3391ZM96.3391 26.112V24.192H97.8271V26.112H96.3391Z" fill="#1A202C"/>
<path d="M91.0185 36.304C90.1758 36.304 89.4238 36.1067 88.7625 35.712C88.1118 35.3174 87.5998 34.7787 87.2265 34.096C86.8532 33.4134 86.6665 32.6454 86.6665 31.792C86.6665 30.928 86.8532 30.16 87.2265 29.488C87.5998 28.816 88.1118 28.2827 88.7625 27.888C89.4238 27.4934 90.1758 27.296 91.0185 27.296C91.5838 27.296 92.1118 27.3974 92.6025 27.6C93.0932 27.8027 93.5252 28.0747 93.8985 28.416C94.2718 28.7574 94.5438 29.1574 94.7145 29.616L93.3865 30.256C93.1838 29.808 92.8745 29.4454 92.4585 29.168C92.0425 28.88 91.5625 28.736 91.0185 28.736C90.4958 28.736 90.0212 28.8694 89.5945 29.136C89.1785 29.4027 88.8478 29.7654 88.6025 30.224C88.3572 30.6827 88.2345 31.2107 88.2345 31.808C88.2345 32.384 88.3572 32.9067 88.6025 33.376C88.8478 33.8347 89.1785 34.1974 89.5945 34.464C90.0212 34.7307 90.4958 34.864 91.0185 34.864C91.5625 34.864 92.0425 34.7254 92.4585 34.448C92.8745 34.16 93.1838 33.7814 93.3865 33.312L94.7145 33.984C94.5438 34.432 94.2718 34.832 93.8985 35.184C93.5252 35.5254 93.0932 35.7974 92.6025 36C92.1118 36.2027 91.5838 36.304 91.0185 36.304Z" fill="#1A202C"/>
<path d="M78.0573 36.112V27.488H79.5133V29.168L79.2732 29.024C79.4866 28.48 79.8279 28.0587 80.2972 27.76C80.7772 27.4507 81.3372 27.296 81.9772 27.296C82.5959 27.296 83.1453 27.4347 83.6253 27.712C84.1159 27.9894 84.4999 28.3734 84.7773 28.864C85.0653 29.3547 85.2093 29.9094 85.2093 30.528V36.112H83.7053V31.008C83.7053 30.528 83.6199 30.1227 83.4492 29.792C83.2786 29.4614 83.0332 29.2054 82.7132 29.024C82.4039 28.832 82.0466 28.736 81.6413 28.736C81.2359 28.736 80.8733 28.832 80.5533 29.024C80.2439 29.2054 79.9986 29.4667 79.8173 29.808C79.6359 30.1387 79.5452 30.5387 79.5452 31.008V36.112H78.0573Z" fill="#1A202C"/>
<path d="M71.7021 36.304C71.1368 36.304 70.6355 36.2027 70.1981 36C69.7715 35.7867 69.4355 35.4987 69.1901 35.136C68.9448 34.7627 68.8221 34.336 68.8221 33.856C68.8221 33.3974 68.9181 32.9867 69.1101 32.624C69.3128 32.2507 69.6221 31.936 70.0381 31.68C70.4648 31.424 70.9981 31.2427 71.6381 31.136L74.8381 30.608V31.856L71.9741 32.336C71.4195 32.432 71.0141 32.608 70.7581 32.864C70.5128 33.12 70.3901 33.4347 70.3901 33.808C70.3901 34.16 70.5288 34.4534 70.8061 34.688C71.0941 34.9227 71.4515 35.04 71.8781 35.04C72.4221 35.04 72.8915 34.928 73.2861 34.704C73.6915 34.4694 74.0061 34.1547 74.2301 33.76C74.4648 33.3654 74.5821 32.928 74.5821 32.448V30.256C74.5821 29.7867 74.4061 29.408 74.0541 29.12C73.7128 28.8214 73.2595 28.672 72.6941 28.672C72.2035 28.672 71.7661 28.8 71.3821 29.056C71.0088 29.3014 70.7315 29.632 70.5501 30.048L69.2541 29.376C69.4141 28.9814 69.6701 28.6294 70.0221 28.32C70.3741 28 70.7848 27.7494 71.2541 27.568C71.7235 27.3867 72.2141 27.296 72.7261 27.296C73.3875 27.296 73.9688 27.424 74.4701 27.68C74.9715 27.9254 75.3608 28.272 75.6381 28.72C75.9261 29.1574 76.0701 29.6694 76.0701 30.256V36.112H74.6141V34.48L74.8861 34.576C74.7048 34.9174 74.4595 35.216 74.1501 35.472C73.8408 35.728 73.4781 35.9307 73.0621 36.08C72.6461 36.2294 72.1928 36.304 71.7021 36.304Z" fill="#1A202C"/>
<path d="M60.2129 36.112V24H61.7009V29.168L61.4289 29.024C61.6422 28.48 61.9836 28.0587 62.4529 27.76C62.9329 27.4507 63.4929 27.296 64.1329 27.296C64.7516 27.296 65.3009 27.4347 65.7809 27.712C66.2716 27.9893 66.6556 28.3733 66.9329 28.864C67.2209 29.3547 67.3649 29.9093 67.3649 30.528V36.112H65.8609V31.008C65.8609 30.528 65.7702 30.1227 65.5889 29.792C65.4182 29.4613 65.1782 29.2053 64.8689 29.024C64.5596 28.832 64.2022 28.736 63.7969 28.736C63.4022 28.736 63.0449 28.832 62.7249 29.024C62.4049 29.2053 62.1542 29.4667 61.9729 29.808C61.7916 30.1387 61.7009 30.5387 61.7009 31.008V36.112H60.2129Z" fill="#1A202C"/>
<path d="M51.2516 36.112V27.488H52.7076V29.168L52.4676 29.024C52.6809 28.48 53.0223 28.0587 53.4916 27.76C53.9716 27.4507 54.5316 27.296 55.1716 27.296C55.7903 27.296 56.3396 27.4347 56.8196 27.712C57.3103 27.9894 57.6943 28.3734 57.9716 28.864C58.2596 29.3547 58.4036 29.9094 58.4036 30.528V36.112H56.8996V31.008C56.8996 30.528 56.8143 30.1227 56.6436 29.792C56.4729 29.4614 56.2276 29.2054 55.9076 29.024C55.5983 28.832 55.2409 28.736 54.8356 28.736C54.4303 28.736 54.0676 28.832 53.7476 29.024C53.4383 29.2054 53.1929 29.4667 53.0116 29.808C52.8303 30.1387 52.7396 30.5387 52.7396 31.008V36.112H51.2516Z" fill="#1A202C"/>
<path d="M45.7115 36.304C44.8795 36.304 44.1381 36.1067 43.4875 35.712C42.8368 35.3174 42.3248 34.7787 41.9515 34.096C41.5781 33.4027 41.3915 32.6294 41.3915 31.776C41.3915 30.912 41.5728 30.144 41.9355 29.472C42.3088 28.8 42.8101 28.272 43.4395 27.888C44.0795 27.4934 44.7941 27.296 45.5835 27.296C46.2235 27.296 46.7888 27.4134 47.2795 27.648C47.7808 27.872 48.2021 28.1814 48.5435 28.576C48.8955 28.96 49.1621 29.4027 49.3435 29.904C49.5355 30.3947 49.6315 30.9067 49.6315 31.44C49.6315 31.5574 49.6208 31.6907 49.5995 31.84C49.5888 31.9787 49.5728 32.112 49.5515 32.24H42.4795V30.96H48.6875L47.9835 31.536C48.0795 30.9814 48.0261 30.4854 47.8235 30.048C47.6208 29.6107 47.3221 29.264 46.9275 29.008C46.5328 28.752 46.0848 28.624 45.5835 28.624C45.0821 28.624 44.6235 28.752 44.2075 29.008C43.7915 29.264 43.4661 29.632 43.2315 30.112C43.0075 30.5814 42.9168 31.1414 42.9595 31.792C42.9168 32.4214 43.0128 32.976 43.2475 33.456C43.4928 33.9254 43.8341 34.2934 44.2715 34.56C44.7195 34.816 45.2048 34.944 45.7275 34.944C46.3035 34.944 46.7888 34.8107 47.1835 34.544C47.5781 34.2774 47.8981 33.936 48.1435 33.52L49.3915 34.16C49.2208 34.5547 48.9541 34.9174 48.5915 35.248C48.2395 35.568 47.8181 35.824 47.3275 36.016C46.8475 36.208 46.3088 36.304 45.7115 36.304Z" fill="#1A202C"/>
<path d="M33.7577 36.304C32.9257 36.304 32.1844 36.1067 31.5337 35.712C30.8831 35.3174 30.3711 34.7787 29.9977 34.096C29.6244 33.4027 29.4377 32.6294 29.4377 31.776C29.4377 30.912 29.6191 30.144 29.9817 29.472C30.3551 28.8 30.8564 28.272 31.4857 27.888C32.1257 27.4934 32.8404 27.296 33.6297 27.296C34.2697 27.296 34.8351 27.4134 35.3257 27.648C35.8271 27.872 36.2484 28.1814 36.5897 28.576C36.9417 28.96 37.2084 29.4027 37.3897 29.904C37.5817 30.3947 37.6777 30.9067 37.6777 31.44C37.6777 31.5574 37.6671 31.6907 37.6457 31.84C37.6351 31.9787 37.6191 32.112 37.5977 32.24H30.5257V30.96H36.7337L36.0297 31.536C36.1257 30.9814 36.0724 30.4854 35.8697 30.048C35.6671 29.6107 35.3684 29.264 34.9737 29.008C34.5791 28.752 34.1311 28.624 33.6297 28.624C33.1284 28.624 32.6697 28.752 32.2537 29.008C31.8377 29.264 31.5124 29.632 31.2777 30.112C31.0537 30.5814 30.9631 31.1414 31.0057 31.792C30.9631 32.4214 31.0591 32.976 31.2937 33.456C31.5391 33.9254 31.8804 34.2934 32.3177 34.56C32.7657 34.816 33.2511 34.944 33.7737 34.944C34.3497 34.944 34.8351 34.8107 35.2297 34.544C35.6244 34.2774 35.9444 33.936 36.1897 33.52L37.4377 34.16C37.2671 34.5547 37.0004 34.9174 36.6377 35.248C36.2857 35.568 35.8644 35.824 35.3737 36.016C34.8937 36.208 34.3551 36.304 33.7577 36.304Z" fill="#1A202C"/>
<path d="M26.3129 36.112V24H27.8009V36.112H26.3129Z" fill="#1A202C"/>
<path d="M22.8361 36.112V27.488H24.3241V36.112H22.8361ZM22.8361 26.112V24.192H24.3241V26.112H22.8361Z" fill="#1A202C"/>
<path d="M13.8748 36.112V24H15.3628V29.168L15.0908 29.024C15.3041 28.48 15.6454 28.0587 16.1148 27.76C16.5948 27.4507 17.1548 27.296 17.7948 27.296C18.4134 27.296 18.9628 27.4347 19.4428 27.712C19.9334 27.9893 20.3174 28.3733 20.5948 28.864C20.8828 29.3547 21.0268 29.9093 21.0268 30.528V36.112H19.5228V31.008C19.5228 30.528 19.4321 30.1227 19.2508 29.792C19.0801 29.4613 18.8401 29.2053 18.5308 29.024C18.2214 28.832 17.8641 28.736 17.4588 28.736C17.0641 28.736 16.7068 28.832 16.3868 29.024C16.0668 29.2053 15.8161 29.4667 15.6348 29.808C15.4534 30.1387 15.3628 30.5387 15.3628 31.008V36.112H13.8748Z" fill="#1A202C"/>
<path d="M2.96 36.112L0 27.488H1.648L4 34.704L3.424 34.688L5.728 27.488H7.136L9.44 34.688L8.864 34.704L11.232 27.488H12.864L9.904 36.112H8.48L6.208 28.912H6.656L4.384 36.112H2.96Z" fill="#1A202C"/>
<path d="M251.468 12.208C250.625 12.208 249.974 11.968 249.516 11.488C249.068 11.008 248.844 10.3307 248.844 9.45603V4.91203H247.276V3.48803H247.596C247.98 3.48803 248.284 3.3707 248.508 3.13603C248.732 2.90136 248.844 2.59203 248.844 2.20803V1.50403H250.332V3.48803H252.268V4.91203H250.332V9.40803C250.332 9.69603 250.374 9.9467 250.46 10.16C250.556 10.3734 250.71 10.544 250.924 10.672C251.137 10.7894 251.42 10.848 251.772 10.848C251.846 10.848 251.937 10.8427 252.044 10.832C252.161 10.8214 252.268 10.8107 252.364 10.8V12.112C252.225 12.144 252.07 12.1654 251.9 12.176C251.729 12.1974 251.585 12.208 251.468 12.208Z" fill="#1A202C"/>
<path d="M242.612 12.112V3.48803H244.068V5.07203L243.908 4.84803C244.11 4.35736 244.42 3.9947 244.836 3.76003C245.252 3.5147 245.758 3.39203 246.356 3.39203H246.884V4.80003H246.132C245.524 4.80003 245.033 4.99203 244.66 5.37603C244.286 5.74936 244.1 6.2827 244.1 6.97603V12.112H242.612Z" fill="#1A202C"/>
<path d="M236.559 12.304C235.727 12.304 234.975 12.112 234.303 11.728C233.631 11.3334 233.098 10.7947 232.703 10.112C232.308 9.42935 232.111 8.65602 232.111 7.79202C232.111 6.92802 232.303 6.16002 232.687 5.48802C233.082 4.81602 233.615 4.28269 234.287 3.88802C234.959 3.49335 235.716 3.29602 236.559 3.29602C237.391 3.29602 238.143 3.49335 238.815 3.88802C239.487 4.27202 240.015 4.80002 240.399 5.47202C240.794 6.14402 240.991 6.91735 240.991 7.79202C240.991 8.66669 240.788 9.44535 240.383 10.128C239.978 10.8 239.439 11.3334 238.767 11.728C238.105 12.112 237.37 12.304 236.559 12.304ZM236.559 10.864C237.092 10.864 237.572 10.7307 237.999 10.464C238.436 10.1974 238.778 9.82935 239.023 9.36002C239.279 8.89069 239.407 8.36802 239.407 7.79202C239.407 7.20535 239.279 6.68802 239.023 6.24002C238.778 5.78135 238.436 5.41869 237.999 5.15202C237.572 4.87469 237.092 4.73602 236.559 4.73602C236.015 4.73602 235.524 4.87469 235.087 5.15202C234.66 5.41869 234.319 5.78135 234.063 6.24002C233.807 6.68802 233.679 7.20535 233.679 7.79202C233.679 8.36802 233.807 8.89069 234.063 9.36002C234.319 9.82935 234.66 10.1974 235.087 10.464C235.524 10.7307 236.015 10.864 236.559 10.864Z" fill="#1A202C"/>
<path d="M221.539 12.112V4.912H219.891V3.488H221.539V2.88C221.539 2.26133 221.672 1.73867 221.939 1.312C222.216 0.885333 222.579 0.56 223.027 0.335999C223.485 0.112 223.992 0 224.547 0C224.664 0 224.792 0.0106665 224.931 0.0319996C225.08 0.0426668 225.203 0.0586669 225.299 0.0799999V1.408C225.213 1.38667 225.112 1.376 224.995 1.376C224.877 1.36533 224.787 1.36 224.723 1.36C224.232 1.36 223.827 1.47733 223.507 1.712C223.197 1.94667 223.043 2.336 223.043 2.88V3.488H227.523V4.912H223.043V12.112H221.539ZM227.747 12.112V4.912H226.083V3.488H227.747V2.88C227.747 2.26133 227.88 1.73867 228.147 1.312C228.413 0.885333 228.771 0.56 229.219 0.335999C229.677 0.112 230.189 0 230.755 0C230.861 0 230.984 0.0106665 231.123 0.0319996C231.272 0.0426668 231.395 0.0586669 231.491 0.0799999V1.408C231.405 1.38667 231.304 1.376 231.187 1.376C231.069 1.36533 230.984 1.36 230.931 1.36C230.429 1.36 230.019 1.47733 229.699 1.712C229.389 1.94667 229.235 2.336 229.235 2.88V3.488H231.283V4.912H229.235V12.112H227.747Z" fill="#1A202C"/>
<path d="M215.086 12.304C214.254 12.304 213.513 12.1067 212.862 11.712C212.212 11.3174 211.7 10.7787 211.326 10.096C210.953 9.40269 210.766 8.62935 210.766 7.77602C210.766 6.91202 210.948 6.14402 211.31 5.47202C211.684 4.80002 212.185 4.27202 212.814 3.88802C213.454 3.49335 214.169 3.29602 214.958 3.29602C215.598 3.29602 216.164 3.41335 216.654 3.64802C217.156 3.87202 217.577 4.18135 217.918 4.57602C218.27 4.96002 218.537 5.40269 218.718 5.90402C218.91 6.39469 219.006 6.90669 219.006 7.44002C219.006 7.55735 218.996 7.69069 218.974 7.84002C218.964 7.97869 218.948 8.11202 218.926 8.24002H211.854V6.96002H218.062L217.358 7.53602C217.454 6.98135 217.401 6.48535 217.198 6.04802C216.996 5.61069 216.697 5.26402 216.302 5.00802C215.908 4.75202 215.46 4.62402 214.958 4.62402C214.457 4.62402 213.998 4.75202 213.582 5.00802C213.166 5.26402 212.841 5.63202 212.606 6.11202C212.382 6.58135 212.292 7.14135 212.334 7.79202C212.292 8.42135 212.388 8.97602 212.622 9.45602C212.868 9.92535 213.209 10.2934 213.646 10.56C214.094 10.816 214.58 10.944 215.102 10.944C215.678 10.944 216.164 10.8107 216.558 10.544C216.953 10.2774 217.273 9.93602 217.518 9.52002L218.766 10.16C218.596 10.5547 218.329 10.9174 217.966 11.248C217.614 11.568 217.193 11.824 216.702 12.016C216.222 12.208 215.684 12.304 215.086 12.304Z" fill="#1A202C"/>
<path d="M202.21 12.304C201.399 12.304 200.668 12.1067 200.018 11.712C199.378 11.3173 198.871 10.7787 198.498 10.096C198.124 9.41333 197.938 8.65067 197.938 7.808C197.938 6.944 198.124 6.176 198.498 5.504C198.871 4.82133 199.378 4.28267 200.018 3.888C200.668 3.49333 201.399 3.296 202.21 3.296C202.924 3.296 203.559 3.45067 204.114 3.76C204.668 4.05867 205.106 4.464 205.426 4.976L205.186 5.344V0H206.69V12.112H205.234V10.272L205.426 10.528C205.127 11.0933 204.69 11.5307 204.114 11.84C203.548 12.1493 202.914 12.304 202.21 12.304ZM202.338 10.864C202.882 10.864 203.367 10.7307 203.794 10.464C204.22 10.1973 204.556 9.83467 204.802 9.376C205.058 8.90667 205.186 8.384 205.186 7.808C205.186 7.22133 205.058 6.69867 204.802 6.24C204.556 5.77067 204.22 5.40267 203.794 5.136C203.367 4.86933 202.882 4.736 202.338 4.736C201.804 4.736 201.319 4.87467 200.882 5.152C200.455 5.41867 200.119 5.78133 199.874 6.24C199.628 6.688 199.506 7.21067 199.506 7.808C199.506 8.384 199.628 8.90667 199.874 9.376C200.119 9.83467 200.455 10.1973 200.882 10.464C201.308 10.7307 201.794 10.864 202.338 10.864Z" fill="#1A202C"/>
<path d="M189.328 12.112V3.48802H190.785V5.16802L190.544 5.02402C190.758 4.48002 191.099 4.05869 191.568 3.76002C192.048 3.45069 192.609 3.29602 193.249 3.29602C193.867 3.29602 194.416 3.43469 194.896 3.71202C195.387 3.98935 195.771 4.37335 196.048 4.86402C196.336 5.35469 196.48 5.90935 196.48 6.52802V12.112H194.977V7.00802C194.977 6.52802 194.891 6.12269 194.721 5.79202C194.55 5.46135 194.304 5.20535 193.984 5.02402C193.675 4.83202 193.318 4.73602 192.913 4.73602C192.507 4.73602 192.144 4.83202 191.824 5.02402C191.515 5.20535 191.27 5.46669 191.089 5.80802C190.907 6.13869 190.816 6.53869 190.816 7.00802V12.112H189.328Z" fill="#1A202C"/>
<path d="M182.973 12.304C182.408 12.304 181.907 12.2027 181.469 12C181.043 11.7867 180.707 11.4987 180.461 11.136C180.216 10.7627 180.093 10.336 180.093 9.85602C180.093 9.39735 180.189 8.98669 180.381 8.62402C180.584 8.25069 180.893 7.93602 181.309 7.68002C181.736 7.42402 182.269 7.24269 182.909 7.13602L186.109 6.60802V7.85602L183.245 8.33602C182.691 8.43202 182.285 8.60802 182.029 8.86402C181.784 9.12002 181.661 9.43469 181.661 9.80802C181.661 10.16 181.8 10.4534 182.077 10.688C182.365 10.9227 182.723 11.04 183.149 11.04C183.693 11.04 184.163 10.928 184.557 10.704C184.963 10.4694 185.277 10.1547 185.501 9.76002C185.736 9.36535 185.853 8.92802 185.853 8.44802V6.25602C185.853 5.78669 185.677 5.40802 185.325 5.12002C184.984 4.82135 184.531 4.67202 183.965 4.67202C183.475 4.67202 183.037 4.80002 182.653 5.05602C182.28 5.30135 182.003 5.63202 181.821 6.04802L180.525 5.37602C180.685 4.98135 180.941 4.62935 181.293 4.32002C181.645 4.00002 182.056 3.74935 182.525 3.56802C182.995 3.38669 183.485 3.29602 183.997 3.29602C184.659 3.29602 185.24 3.42402 185.741 3.68002C186.243 3.92535 186.632 4.27202 186.909 4.72002C187.197 5.15735 187.341 5.66935 187.341 6.25602V12.112H185.885V10.48L186.157 10.576C185.976 10.9174 185.731 11.216 185.421 11.472C185.112 11.728 184.749 11.9307 184.333 12.08C183.917 12.2294 183.464 12.304 182.973 12.304Z" fill="#1A202C"/>
<path d="M172.46 12.304C171.628 12.304 170.886 12.1067 170.236 11.712C169.585 11.3174 169.073 10.7787 168.7 10.096C168.326 9.40269 168.14 8.62935 168.14 7.77602C168.14 6.91202 168.321 6.14402 168.684 5.47202C169.057 4.80002 169.558 4.27202 170.188 3.88802C170.828 3.49335 171.542 3.29602 172.332 3.29602C172.972 3.29602 173.537 3.41335 174.028 3.64802C174.529 3.87202 174.95 4.18135 175.292 4.57602C175.644 4.96002 175.91 5.40269 176.092 5.90402C176.284 6.39469 176.38 6.90669 176.38 7.44002C176.38 7.55735 176.369 7.69069 176.348 7.84002C176.337 7.97869 176.321 8.11202 176.3 8.24002H169.228V6.96002H175.436L174.732 7.53602C174.828 6.98135 174.774 6.48535 174.572 6.04802C174.369 5.61069 174.07 5.26402 173.676 5.00802C173.281 4.75202 172.833 4.62402 172.332 4.62402C171.83 4.62402 171.372 4.75202 170.956 5.00802C170.54 5.26402 170.214 5.63202 169.98 6.11202C169.756 6.58135 169.665 7.14135 169.708 7.79202C169.665 8.42135 169.761 8.97602 169.996 9.45602C170.241 9.92535 170.582 10.2934 171.02 10.56C171.468 10.816 171.953 10.944 172.476 10.944C173.052 10.944 173.537 10.8107 173.932 10.544C174.326 10.2774 174.646 9.93602 174.892 9.52002L176.14 10.16C175.969 10.5547 175.702 10.9174 175.34 11.248C174.988 11.568 174.566 11.824 174.076 12.016C173.596 12.208 173.057 12.304 172.46 12.304Z" fill="#1A202C"/>
<path d="M154.202 12.112V3.48802H155.658V5.24802L155.45 4.97602C155.664 4.43202 156.005 4.01602 156.474 3.72802C156.944 3.44002 157.472 3.29602 158.058 3.29602C158.73 3.29602 159.333 3.48269 159.866 3.85602C160.41 4.22935 160.784 4.72002 160.986 5.32802L160.57 5.34402C160.794 4.67202 161.173 4.16535 161.706 3.82402C162.24 3.47202 162.832 3.29602 163.482 3.29602C164.08 3.29602 164.618 3.43469 165.098 3.71202C165.589 3.98935 165.978 4.37335 166.266 4.86402C166.554 5.35469 166.698 5.90935 166.698 6.52802V12.112H165.194V7.00802C165.194 6.52802 165.109 6.12269 164.938 5.79202C164.768 5.46135 164.533 5.20535 164.234 5.02402C163.946 4.83202 163.605 4.73602 163.21 4.73602C162.826 4.73602 162.48 4.83202 162.17 5.02402C161.872 5.20535 161.632 5.46669 161.45 5.80802C161.28 6.13869 161.194 6.53869 161.194 7.00802V12.112H159.69V7.00802C159.69 6.52802 159.605 6.12269 159.434 5.79202C159.264 5.46135 159.029 5.20535 158.73 5.02402C158.442 4.83202 158.101 4.73602 157.706 4.73602C157.322 4.73602 156.976 4.83202 156.666 5.02402C156.368 5.20535 156.128 5.46669 155.946 5.80802C155.776 6.13869 155.69 6.53869 155.69 7.00802V12.112H154.202Z" fill="#1A202C"/>
<path d="M150.725 12.112V3.48802H152.213V12.112H150.725ZM150.725 2.11202V0.192017H152.213V2.11202H150.725Z" fill="#1A202C"/>
<path d="M148.206 12.208C147.363 12.208 146.712 11.968 146.254 11.488C145.806 11.008 145.582 10.3307 145.582 9.45603V4.91203H144.014V3.48803H144.334C144.718 3.48803 145.022 3.3707 145.246 3.13603C145.47 2.90136 145.582 2.59203 145.582 2.20803V1.50403H147.07V3.48803H149.006V4.91203H147.07V9.40803C147.07 9.69603 147.112 9.9467 147.198 10.16C147.294 10.3734 147.448 10.544 147.662 10.672C147.875 10.7894 148.158 10.848 148.51 10.848C148.584 10.848 148.675 10.8427 148.782 10.832C148.899 10.8214 149.006 10.8107 149.102 10.8V12.112C148.963 12.144 148.808 12.1654 148.638 12.176C148.467 12.1974 148.323 12.208 148.206 12.208Z" fill="#1A202C"/>
<path d="M136.716 12.304C135.884 12.304 135.143 12.1067 134.492 11.712C133.841 11.3174 133.329 10.7787 132.956 10.096C132.583 9.40269 132.396 8.62935 132.396 7.77602C132.396 6.91202 132.577 6.14402 132.94 5.47202C133.313 4.80002 133.815 4.27202 134.444 3.88802C135.084 3.49335 135.799 3.29602 136.588 3.29602C137.228 3.29602 137.793 3.41335 138.284 3.64802C138.785 3.87202 139.207 4.18135 139.548 4.57602C139.9 4.96002 140.167 5.40269 140.348 5.90402C140.54 6.39469 140.636 6.90669 140.636 7.44002C140.636 7.55735 140.625 7.69069 140.604 7.84002C140.593 7.97869 140.577 8.11202 140.556 8.24002H133.484V6.96002H139.692L138.988 7.53602C139.084 6.98135 139.031 6.48535 138.828 6.04802C138.625 5.61069 138.327 5.26402 137.932 5.00802C137.537 4.75202 137.089 4.62402 136.588 4.62402C136.087 4.62402 135.628 4.75202 135.212 5.00802C134.796 5.26402 134.471 5.63202 134.236 6.11202C134.012 6.58135 133.921 7.14135 133.964 7.79202C133.921 8.42135 134.017 8.97602 134.252 9.45602C134.497 9.92535 134.839 10.2934 135.276 10.56C135.724 10.816 136.209 10.944 136.732 10.944C137.308 10.944 137.793 10.8107 138.188 10.544C138.583 10.2774 138.903 9.93602 139.148 9.52002L140.396 10.16C140.225 10.5547 139.959 10.9174 139.596 11.248C139.244 11.568 138.823 11.824 138.332 12.016C137.852 12.208 137.313 12.304 136.716 12.304Z" fill="#1A202C"/>
<path d="M127.093 12.112L123.717 3.48798H125.381L128.085 10.784H127.509L130.229 3.48798H131.893L128.501 12.112H127.093Z" fill="#1A202C"/>
<path d="M118.494 12.304C117.929 12.304 117.427 12.2027 116.99 12C116.563 11.7867 116.227 11.4987 115.982 11.136C115.737 10.7627 115.614 10.336 115.614 9.85602C115.614 9.39735 115.71 8.98669 115.902 8.62402C116.105 8.25069 116.414 7.93602 116.83 7.68002C117.257 7.42402 117.79 7.24269 118.43 7.13602L121.63 6.60802V7.85602L118.766 8.33602C118.211 8.43202 117.806 8.60802 117.55 8.86402C117.305 9.12002 117.182 9.43469 117.182 9.80802C117.182 10.16 117.321 10.4534 117.598 10.688C117.886 10.9227 118.243 11.04 118.67 11.04C119.214 11.04 119.683 10.928 120.078 10.704C120.483 10.4694 120.798 10.1547 121.022 9.76002C121.257 9.36535 121.374 8.92802 121.374 8.44802V6.25602C121.374 5.78669 121.198 5.40802 120.846 5.12002C120.505 4.82135 120.051 4.67202 119.486 4.67202C118.995 4.67202 118.558 4.80002 118.174 5.05602C117.801 5.30135 117.523 5.63202 117.342 6.04802L116.046 5.37602C116.206 4.98135 116.462 4.62935 116.814 4.32002C117.166 4.00002 117.577 3.74935 118.046 3.56802C118.515 3.38669 119.006 3.29602 119.518 3.29602C120.179 3.29602 120.761 3.42402 121.262 3.68002C121.763 3.92535 122.153 4.27202 122.43 4.72002C122.718 5.15735 122.862 5.66935 122.862 6.25602V12.112H121.406V10.48L121.678 10.576C121.497 10.9174 121.251 11.216 120.942 11.472C120.633 11.728 120.27 11.9307 119.854 12.08C119.438 12.2294 118.985 12.304 118.494 12.304Z" fill="#1A202C"/>
<path d="M111.202 12.304C110.338 12.304 109.586 12.0907 108.946 11.664C108.306 11.2374 107.853 10.6614 107.586 9.93602L108.77 9.36002C109.016 9.87202 109.352 10.2774 109.778 10.576C110.205 10.8747 110.68 11.024 111.202 11.024C111.672 11.024 112.061 10.912 112.37 10.688C112.68 10.464 112.834 10.1707 112.834 9.80802C112.834 9.55202 112.76 9.34935 112.61 9.20002C112.472 9.04002 112.301 8.91735 112.098 8.83202C111.896 8.73602 111.709 8.66669 111.538 8.62402L110.242 8.25602C109.464 8.03202 108.893 7.71202 108.53 7.29602C108.178 6.88002 108.002 6.39469 108.002 5.84002C108.002 5.32802 108.13 4.88535 108.386 4.51202C108.653 4.12802 109.01 3.82935 109.458 3.61602C109.917 3.40269 110.429 3.29602 110.994 3.29602C111.752 3.29602 112.429 3.48802 113.026 3.87202C113.634 4.25602 114.066 4.79469 114.322 5.48802L113.106 6.04802C112.914 5.60002 112.626 5.24802 112.242 4.99202C111.858 4.72535 111.426 4.59202 110.946 4.59202C110.509 4.59202 110.162 4.70402 109.906 4.92802C109.65 5.14135 109.522 5.41335 109.522 5.74402C109.522 5.98935 109.586 6.19202 109.714 6.35202C109.842 6.50135 109.997 6.61869 110.178 6.70402C110.36 6.77869 110.536 6.84269 110.706 6.89602L112.114 7.31202C112.818 7.51469 113.362 7.82935 113.746 8.25602C114.141 8.68269 114.338 9.19469 114.338 9.79202C114.338 10.272 114.205 10.704 113.938 11.088C113.672 11.472 113.304 11.7707 112.834 11.984C112.365 12.1974 111.821 12.304 111.202 12.304Z" fill="#1A202C"/>
<path d="M99.6157 12.304C98.7837 12.304 98.0317 12.112 97.3597 11.728C96.6877 11.3334 96.1544 10.7947 95.7597 10.112C95.3651 9.42935 95.1677 8.65602 95.1677 7.79202C95.1677 6.92802 95.3597 6.16002 95.7437 5.48802C96.1384 4.81602 96.6717 4.28269 97.3437 3.88802C98.0157 3.49335 98.7731 3.29602 99.6157 3.29602C100.448 3.29602 101.2 3.49335 101.872 3.88802C102.544 4.27202 103.072 4.80002 103.456 5.47202C103.85 6.14402 104.048 6.91735 104.048 7.79202C104.048 8.66669 103.845 9.44535 103.44 10.128C103.034 10.8 102.496 11.3334 101.824 11.728C101.162 12.112 100.426 12.304 99.6157 12.304ZM99.6157 10.864C100.149 10.864 100.629 10.7307 101.056 10.464C101.493 10.1974 101.834 9.82935 102.08 9.36002C102.336 8.89069 102.464 8.36802 102.464 7.79202C102.464 7.20535 102.336 6.68802 102.08 6.24002C101.834 5.78135 101.493 5.41869 101.056 5.15202C100.629 4.87469 100.149 4.73602 99.6157 4.73602C99.0717 4.73602 98.5811 4.87469 98.1437 5.15202C97.7171 5.41869 97.3757 5.78135 97.1197 6.24002C96.8637 6.68802 96.7357 7.20535 96.7357 7.79202C96.7357 8.36802 96.8637 8.89069 97.1197 9.36002C97.3757 9.82935 97.7171 10.1974 98.1437 10.464C98.5811 10.7307 99.0717 10.864 99.6157 10.864Z" fill="#1A202C"/>
<path d="M93.2344 12.208C92.3917 12.208 91.741 11.968 91.2824 11.488C90.8344 11.008 90.6104 10.3307 90.6104 9.45603V4.91203H89.0424V3.48803H89.3624C89.7464 3.48803 90.0504 3.3707 90.2744 3.13603C90.4984 2.90136 90.6104 2.59203 90.6104 2.20803V1.50403H92.0984V3.48803H94.0344V4.91203H92.0984V9.40803C92.0984 9.69603 92.141 9.9467 92.2264 10.16C92.3224 10.3734 92.477 10.544 92.6904 10.672C92.9037 10.7894 93.1864 10.848 93.5384 10.848C93.613 10.848 93.7037 10.8427 93.8104 10.832C93.9277 10.8214 94.0344 10.8107 94.1304 10.8V12.112C93.9917 12.144 93.837 12.1654 93.6664 12.176C93.4957 12.1974 93.3517 12.208 93.2344 12.208Z" fill="#1A202C"/>
<path d="M82.5209 12.304C81.6569 12.304 80.9049 12.0907 80.2649 11.664C79.6249 11.2374 79.1716 10.6614 78.9049 9.93602L80.0889 9.36002C80.3342 9.87202 80.6702 10.2774 81.0969 10.576C81.5236 10.8747 81.9982 11.024 82.5209 11.024C82.9902 11.024 83.3796 10.912 83.6889 10.688C83.9982 10.464 84.1529 10.1707 84.1529 9.80802C84.1529 9.55202 84.0782 9.34935 83.9289 9.20002C83.7902 9.04002 83.6196 8.91735 83.4169 8.83202C83.2142 8.73602 83.0276 8.66669 82.8569 8.62402L81.5609 8.25602C80.7822 8.03202 80.2116 7.71202 79.8489 7.29602C79.4969 6.88002 79.3209 6.39469 79.3209 5.84002C79.3209 5.32802 79.4489 4.88535 79.7049 4.51202C79.9716 4.12802 80.3289 3.82935 80.7769 3.61602C81.2356 3.40269 81.7476 3.29602 82.3129 3.29602C83.0702 3.29602 83.7476 3.48802 84.3449 3.87202C84.9529 4.25602 85.3849 4.79469 85.6409 5.48802L84.4249 6.04802C84.2329 5.60002 83.9449 5.24802 83.5609 4.99202C83.1769 4.72535 82.7449 4.59202 82.2649 4.59202C81.8276 4.59202 81.4809 4.70402 81.2249 4.92802C80.9689 5.14135 80.8409 5.41335 80.8409 5.74402C80.8409 5.98935 80.9049 6.19202 81.0329 6.35202C81.1609 6.50135 81.3156 6.61869 81.4969 6.70402C81.6782 6.77869 81.8542 6.84269 82.0249 6.89602L83.4329 7.31202C84.1369 7.51469 84.6809 7.82935 85.0649 8.25602C85.4596 8.68269 85.6569 9.19469 85.6569 9.79202C85.6569 10.272 85.5236 10.704 85.2569 11.088C84.9902 11.472 84.6222 11.7707 84.1529 11.984C83.6836 12.1974 83.1396 12.304 82.5209 12.304Z" fill="#1A202C"/>
<path d="M75.9561 12.112V3.48802H77.4441V12.112H75.9561ZM75.9561 2.11202V0.192017H77.4441V2.11202H75.9561Z" fill="#1A202C"/>
<path d="M64.5491 12.112V3.48802H66.0051V5.16802L65.7651 5.02402C65.9784 4.48002 66.3197 4.05869 66.7891 3.76002C67.2691 3.45069 67.8291 3.29602 68.4691 3.29602C69.0877 3.29602 69.6371 3.43469 70.1171 3.71202C70.6077 3.98935 70.9917 4.37335 71.2691 4.86402C71.5571 5.35469 71.7011 5.90935 71.7011 6.52802V12.112H70.1971V7.00802C70.1971 6.52802 70.1117 6.12269 69.9411 5.79202C69.7704 5.46135 69.5251 5.20535 69.2051 5.02402C68.8957 4.83202 68.5384 4.73602 68.1331 4.73602C67.7277 4.73602 67.3651 4.83202 67.0451 5.02402C66.7357 5.20535 66.4904 5.46669 66.3091 5.80802C66.1277 6.13869 66.0371 6.53869 66.0371 7.00802V12.112H64.5491Z" fill="#1A202C"/>
<path d="M58.4963 12.304C57.6643 12.304 56.9123 12.112 56.2403 11.728C55.5683 11.3334 55.035 10.7947 54.6403 10.112C54.2457 9.42935 54.0483 8.65602 54.0483 7.79202C54.0483 6.92802 54.2403 6.16002 54.6243 5.48802C55.019 4.81602 55.5523 4.28269 56.2243 3.88802C56.8963 3.49335 57.6537 3.29602 58.4963 3.29602C59.3283 3.29602 60.0803 3.49335 60.7523 3.88802C61.4243 4.27202 61.9523 4.80002 62.3363 5.47202C62.731 6.14402 62.9283 6.91735 62.9283 7.79202C62.9283 8.66669 62.7257 9.44535 62.3203 10.128C61.915 10.8 61.3763 11.3334 60.7043 11.728C60.043 12.112 59.307 12.304 58.4963 12.304ZM58.4963 10.864C59.0297 10.864 59.5097 10.7307 59.9363 10.464C60.3737 10.1974 60.715 9.82935 60.9603 9.36002C61.2163 8.89069 61.3443 8.36802 61.3443 7.79202C61.3443 7.20535 61.2163 6.68802 60.9603 6.24002C60.715 5.78135 60.3737 5.41869 59.9363 5.15202C59.5097 4.87469 59.0297 4.73602 58.4963 4.73602C57.9523 4.73602 57.4617 4.87469 57.0243 5.15202C56.5977 5.41869 56.2563 5.78135 56.0003 6.24002C55.7443 6.68802 55.6163 7.20535 55.6163 7.79202C55.6163 8.36802 55.7443 8.89069 56.0003 9.36002C56.2563 9.82935 56.5977 10.1974 57.0243 10.464C57.4617 10.7307 57.9523 10.864 58.4963 10.864Z" fill="#1A202C"/>
<path d="M50.9235 12.112V3.48802H52.4115V12.112H50.9235ZM50.9235 2.11202V0.192017H52.4115V2.11202H50.9235Z" fill="#1A202C"/>
<path d="M46.1596 12.304C45.2956 12.304 44.5436 12.0907 43.9036 11.664C43.2636 11.2374 42.8102 10.6614 42.5436 9.93602L43.7276 9.36002C43.9729 9.87202 44.3089 10.2774 44.7356 10.576C45.1622 10.8747 45.6369 11.024 46.1596 11.024C46.6289 11.024 47.0182 10.912 47.3276 10.688C47.6369 10.464 47.7916 10.1707 47.7916 9.80802C47.7916 9.55202 47.7169 9.34935 47.5676 9.20002C47.4289 9.04002 47.2582 8.91735 47.0556 8.83202C46.8529 8.73602 46.6662 8.66669 46.4956 8.62402L45.1996 8.25602C44.4209 8.03202 43.8502 7.71202 43.4876 7.29602C43.1356 6.88002 42.9596 6.39469 42.9596 5.84002C42.9596 5.32802 43.0876 4.88535 43.3436 4.51202C43.6102 4.12802 43.9676 3.82935 44.4156 3.61602C44.8742 3.40269 45.3862 3.29602 45.9516 3.29602C46.7089 3.29602 47.3862 3.48802 47.9836 3.87202C48.5916 4.25602 49.0236 4.79469 49.2796 5.48802L48.0636 6.04802C47.8716 5.60002 47.5836 5.24802 47.1996 4.99202C46.8156 4.72535 46.3836 4.59202 45.9036 4.59202C45.4662 4.59202 45.1196 4.70402 44.8636 4.92802C44.6076 5.14135 44.4796 5.41335 44.4796 5.74402C44.4796 5.98935 44.5436 6.19202 44.6716 6.35202C44.7996 6.50135 44.9542 6.61869 45.1356 6.70402C45.3169 6.77869 45.4929 6.84269 45.6636 6.89602L47.0716 7.31202C47.7756 7.51469 48.3196 7.82935 48.7036 8.25602C49.0982 8.68269 49.2956 9.19469 49.2956 9.79202C49.2956 10.272 49.1622 10.704 48.8956 11.088C48.6289 11.472 48.2609 11.7707 47.7916 11.984C47.3222 12.1974 46.7782 12.304 46.1596 12.304Z" fill="#1A202C"/>
<path d="M39.5947 12.112V3.48802H41.0827V12.112H39.5947ZM39.5947 2.11202V0.192017H41.0827V2.11202H39.5947Z" fill="#1A202C"/>
<path d="M33.7835 12.112L30.4075 3.48798H32.0715L34.7755 10.784H34.1995L36.9195 3.48798H38.5835L35.1915 12.112H33.7835Z" fill="#1A202C"/>
<path d="M23.6642 12.112V3.48803H25.1202V5.07203L24.9602 4.84803C25.1629 4.35736 25.4722 3.9947 25.8882 3.76003C26.3042 3.5147 26.8109 3.39203 27.4082 3.39203H27.9362V4.80003H27.1842C26.5762 4.80003 26.0855 4.99203 25.7122 5.37603C25.3389 5.74936 25.1522 6.2827 25.1522 6.97603V12.112H23.6642Z" fill="#1A202C"/>
<path d="M17.7589 12.304C17.1402 12.304 16.5802 12.16 16.0789 11.872C15.5882 11.584 15.2042 11.184 14.9269 10.672C14.6602 10.1493 14.5269 9.55198 14.5269 8.87998V3.48798H16.0149V8.71998C16.0149 9.14664 16.1002 9.51998 16.2709 9.83998C16.4522 10.16 16.6975 10.4106 17.0069 10.592C17.3269 10.7733 17.6895 10.864 18.0949 10.864C18.5002 10.864 18.8575 10.7733 19.1669 10.592C19.4869 10.4106 19.7322 10.1493 19.9029 9.80798C20.0842 9.46664 20.1749 9.06131 20.1749 8.59198V3.48798H21.6789V12.112H20.2229V10.432L20.4629 10.576C20.2602 11.12 19.9135 11.5466 19.4229 11.856C18.9429 12.1546 18.3882 12.304 17.7589 12.304Z" fill="#1A202C"/>
<path d="M6.84805 12.304C6.00538 12.304 5.21605 12.1547 4.48005 11.856C3.74405 11.5467 3.09872 11.1147 2.54405 10.56C2.00005 10.0053 1.57338 9.35467 1.26405 8.608C0.954715 7.85067 0.800049 7.02933 0.800049 6.144C0.800049 5.248 0.954715 4.42667 1.26405 3.68C1.57338 2.93333 2.00005 2.28267 2.54405 1.728C3.09872 1.17333 3.73872 0.746667 4.46405 0.448C5.20005 0.149333 5.99472 0 6.84805 0C7.70138 0 8.49072 0.154667 9.21605 0.464C9.95205 0.762666 10.592 1.18933 11.136 1.744C11.6907 2.288 12.1227 2.93333 12.432 3.68C12.752 4.42667 12.912 5.248 12.912 6.144C12.912 7.02933 12.752 7.85067 12.432 8.608C12.1227 9.35467 11.6907 10.0053 11.136 10.56C10.592 11.1147 9.95205 11.5467 9.21605 11.856C8.49072 12.1547 7.70138 12.304 6.84805 12.304ZM6.84805 10.848C7.50938 10.848 8.11205 10.7307 8.65605 10.496C9.20005 10.2507 9.66938 9.91467 10.064 9.488C10.4694 9.05067 10.7787 8.54933 10.992 7.984C11.216 7.408 11.328 6.79467 11.328 6.144C11.328 5.49333 11.216 4.88533 10.992 4.32C10.7787 3.75467 10.4694 3.25867 10.064 2.832C9.66938 2.39467 9.20005 2.05867 8.65605 1.824C8.11205 1.57867 7.50938 1.456 6.84805 1.456C6.19738 1.456 5.60005 1.57867 5.05605 1.824C4.51205 2.05867 4.03738 2.39467 3.63205 2.832C3.23738 3.25867 2.92805 3.75467 2.70405 4.32C2.48005 4.88533 2.36805 5.49333 2.36805 6.144C2.36805 6.79467 2.48005 7.408 2.70405 7.984C2.92805 8.54933 3.23738 9.05067 3.63205 9.488C4.03738 9.91467 4.51205 10.2507 5.05605 10.496C5.60005 10.7307 6.19738 10.848 6.84805 10.848Z" fill="#1A202C"/>
</svg>
