<svg width="60" height="53" viewBox="0 0 60 53" fill="none" xmlns="http://www.w3.org/2000/svg">
<path d="M12.5 46.375H47.5C50.2614 46.375 52.5 44.3976 52.5 41.9583V11.0417C52.5 8.60241 50.2614 6.625 47.5 6.625H12.5C9.73858 6.625 7.5 8.60241 7.5 11.0417V41.9583C7.5 44.3976 9.73858 46.375 12.5 46.375ZM12.5 46.375L40 22.0833L52.5 33.125M25 18.7708C25 20.6003 23.3211 22.0833 21.25 22.0833C19.1789 22.0833 17.5 20.6003 17.5 18.7708C17.5 16.9414 19.1789 15.4583 21.25 15.4583C23.3211 15.4583 25 16.9414 25 18.7708Z" stroke="#1E1E1E" stroke-width="4" stroke-linecap="round" stroke-linejoin="round"/>
</svg>
