<svg width="58" height="49" viewBox="0 0 58 49" fill="none" xmlns="http://www.w3.org/2000/svg">
<path d="M12.0833 42.875H45.9167C48.586 42.875 50.75 41.0468 50.75 38.7917V10.2083C50.75 7.95317 48.586 6.125 45.9167 6.125H12.0833C9.41396 6.125 7.25 7.95317 7.25 10.2083V38.7917C7.25 41.0468 9.41396 42.875 12.0833 42.875ZM12.0833 42.875L38.6667 20.4167L50.75 30.625M24.1667 17.3542C24.1667 19.0455 22.5437 20.4167 20.5417 20.4167C18.5396 20.4167 16.9167 19.0455 16.9167 17.3542C16.9167 15.6628 18.5396 14.2917 20.5417 14.2917C22.5437 14.2917 24.1667 15.6628 24.1667 17.3542Z" stroke="#1E1E1E" stroke-width="4" stroke-linecap="round" stroke-linejoin="round"/>
</svg>
