<svg width="19" height="18" viewBox="0 0 19 18" fill="none" xmlns="http://www.w3.org/2000/svg">
<path d="M4.88412 7.09739C2.43566 5.35068 0.761027 3.27024 0.0115955 1.04413C0.0115955 0.522065 0.448679 0 1.6079 0C2.77472 0 3.13959 0.32179 4.15438 0.922615C7.20668 2.84561 10.543 4.60332 14.1237 6.17477C16.4535 7.13339 19 7.81748 19 8.97862C19 10.142 16.4535 10.8644 14.1237 11.7847C10.5402 13.3533 7.20472 15.1112 4.15818 17.0369C3.36003 17.5184 2.63029 18 1.6117 18C1.15001 17.9891 0.713693 17.8721 0.395469 17.6737C0.245131 17.5791 0.132857 17.4656 0.0670418 17.3417C0.00122629 17.2178 -0.0164288 17.0866 0.0153964 16.9581C0.763715 14.7322 2.43703 12.6518 4.88412 10.9049C6.41201 9.66046 7.06954 9.41968 7.06954 8.97862C7.06954 8.53757 15.6516 7.41693 14.1237 6.17477L4.88412 7.09739Z" fill="#212121"/>
</svg>
